<mxfile host="app.diagrams.net" modified="2024-01-17T20:09:24.557Z" agent="Mozilla/5.0 (Windows NT 10.0; Win64; x64) AppleWebKit/537.36 (KHTML, like Gecko) Chrome/120.0.0.0 Safari/537.36" etag="Bw_13pt4RrmP6jwrZF_z" version="22.1.18" type="github">
  <diagram id="C5RBs43oDa-KdzZeNtuy" name="Page-1">
    <mxGraphModel dx="2418" dy="634" grid="1" gridSize="10" guides="1" tooltips="1" connect="1" arrows="1" fold="1" page="1" pageScale="1" pageWidth="827" pageHeight="1169" math="0" shadow="0">
      <root>
        <mxCell id="WIyWlLk6GJQsqaUBKTNV-0" />
        <mxCell id="WIyWlLk6GJQsqaUBKTNV-1" parent="WIyWlLk6GJQsqaUBKTNV-0" />
        <mxCell id="WIyWlLk6GJQsqaUBKTNV-2" value="" style="rounded=0;html=1;jettySize=auto;orthogonalLoop=1;fontSize=11;endArrow=block;endFill=0;endSize=8;strokeWidth=1;shadow=0;labelBackgroundColor=none;edgeStyle=orthogonalEdgeStyle;" parent="WIyWlLk6GJQsqaUBKTNV-1" source="WIyWlLk6GJQsqaUBKTNV-3" edge="1">
          <mxGeometry relative="1" as="geometry">
            <mxPoint x="220" y="120" as="targetPoint" />
          </mxGeometry>
        </mxCell>
        <mxCell id="WIyWlLk6GJQsqaUBKTNV-3" value="Bin Move&lt;br&gt;(Button)" style="rounded=1;whiteSpace=wrap;html=1;fontSize=12;glass=0;strokeWidth=1;shadow=0;" parent="WIyWlLk6GJQsqaUBKTNV-1" vertex="1">
          <mxGeometry x="160" y="50" width="120" height="40" as="geometry" />
        </mxCell>
        <mxCell id="WIyWlLk6GJQsqaUBKTNV-5" value="No" style="edgeStyle=orthogonalEdgeStyle;rounded=0;html=1;jettySize=auto;orthogonalLoop=1;fontSize=11;endArrow=block;endFill=0;endSize=8;strokeWidth=1;shadow=0;labelBackgroundColor=none;" parent="WIyWlLk6GJQsqaUBKTNV-1" source="WIyWlLk6GJQsqaUBKTNV-6" target="WIyWlLk6GJQsqaUBKTNV-7" edge="1">
          <mxGeometry y="10" relative="1" as="geometry">
            <mxPoint as="offset" />
          </mxGeometry>
        </mxCell>
        <mxCell id="qh8T2FMrqrmgHG5f_CXa-1" value="" style="edgeStyle=orthogonalEdgeStyle;rounded=0;orthogonalLoop=1;jettySize=auto;html=1;" edge="1" parent="WIyWlLk6GJQsqaUBKTNV-1" source="WIyWlLk6GJQsqaUBKTNV-6" target="m6odAQxKb8NNMJy8UJ10-0">
          <mxGeometry relative="1" as="geometry" />
        </mxCell>
        <mxCell id="WIyWlLk6GJQsqaUBKTNV-6" value="Data Relevant&amp;nbsp;&lt;br&gt;to Data Source?" style="rhombus;whiteSpace=wrap;html=1;shadow=0;fontFamily=Helvetica;fontSize=12;align=center;strokeWidth=1;spacing=6;spacingTop=-4;" parent="WIyWlLk6GJQsqaUBKTNV-1" vertex="1">
          <mxGeometry x="170" y="170" width="100" height="80" as="geometry" />
        </mxCell>
        <mxCell id="m6odAQxKb8NNMJy8UJ10-7" style="edgeStyle=orthogonalEdgeStyle;rounded=0;orthogonalLoop=1;jettySize=auto;html=1;exitX=0.5;exitY=0;exitDx=0;exitDy=0;" parent="WIyWlLk6GJQsqaUBKTNV-1" source="WIyWlLk6GJQsqaUBKTNV-7" edge="1">
          <mxGeometry relative="1" as="geometry">
            <mxPoint x="395" y="240" as="sourcePoint" />
            <mxPoint x="280" y="120" as="targetPoint" />
            <Array as="points">
              <mxPoint x="400" y="190" />
              <mxPoint x="400" y="120" />
            </Array>
          </mxGeometry>
        </mxCell>
        <mxCell id="WIyWlLk6GJQsqaUBKTNV-7" value="Empty - No Data Found" style="rounded=1;whiteSpace=wrap;html=1;fontSize=12;glass=0;strokeWidth=1;shadow=0;" parent="WIyWlLk6GJQsqaUBKTNV-1" vertex="1">
          <mxGeometry x="320" y="190" width="150" height="40" as="geometry" />
        </mxCell>
        <mxCell id="m6odAQxKb8NNMJy8UJ10-22" value="" style="edgeStyle=orthogonalEdgeStyle;rounded=0;orthogonalLoop=1;jettySize=auto;html=1;entryX=1;entryY=0.5;entryDx=0;entryDy=0;" parent="WIyWlLk6GJQsqaUBKTNV-1" edge="1">
          <mxGeometry relative="1" as="geometry">
            <mxPoint x="286.67" y="120" as="targetPoint" />
            <Array as="points">
              <mxPoint x="807.67" y="616" />
              <mxPoint x="807.67" y="120" />
            </Array>
            <mxPoint x="280.0033333333335" y="616" as="sourcePoint" />
          </mxGeometry>
        </mxCell>
        <mxCell id="WIyWlLk6GJQsqaUBKTNV-10" value="Do you want&lt;br&gt;to Add Another&amp;nbsp;&lt;br&gt;Bin Move?" style="rhombus;whiteSpace=wrap;html=1;shadow=0;fontFamily=Helvetica;fontSize=12;align=center;strokeWidth=1;spacing=6;spacingTop=-4;" parent="WIyWlLk6GJQsqaUBKTNV-1" vertex="1">
          <mxGeometry x="160" y="570" width="120" height="90" as="geometry" />
        </mxCell>
        <mxCell id="m6odAQxKb8NNMJy8UJ10-25" value="" style="edgeStyle=orthogonalEdgeStyle;rounded=0;orthogonalLoop=1;jettySize=auto;html=1;entryX=1;entryY=0.25;entryDx=0;entryDy=0;exitX=0.5;exitY=1;exitDx=0;exitDy=0;" parent="WIyWlLk6GJQsqaUBKTNV-1" source="WIyWlLk6GJQsqaUBKTNV-10" target="WIyWlLk6GJQsqaUBKTNV-3" edge="1">
          <mxGeometry relative="1" as="geometry">
            <mxPoint x="400" y="70" as="targetPoint" />
            <Array as="points">
              <mxPoint x="821" y="660" />
              <mxPoint x="821" y="545" />
              <mxPoint x="820" y="545" />
              <mxPoint x="820" y="60" />
            </Array>
            <mxPoint x="821" y="690" as="sourcePoint" />
          </mxGeometry>
        </mxCell>
        <mxCell id="pQBZNguw_GrPjB0Wjp2l-0" value="" style="edgeStyle=orthogonalEdgeStyle;rounded=0;orthogonalLoop=1;jettySize=auto;html=1;entryX=0.5;entryY=0;entryDx=0;entryDy=0;" parent="WIyWlLk6GJQsqaUBKTNV-1" source="WIyWlLk6GJQsqaUBKTNV-11" target="WIyWlLk6GJQsqaUBKTNV-10" edge="1">
          <mxGeometry relative="1" as="geometry">
            <Array as="points" />
          </mxGeometry>
        </mxCell>
        <mxCell id="WIyWlLk6GJQsqaUBKTNV-11" value="Display Changes&lt;br&gt;&amp;amp;&lt;br&gt;Send Notification" style="rounded=1;whiteSpace=wrap;html=1;fontSize=12;glass=0;strokeWidth=1;shadow=0;" parent="WIyWlLk6GJQsqaUBKTNV-1" vertex="1">
          <mxGeometry x="160" y="420" width="120" height="50" as="geometry" />
        </mxCell>
        <mxCell id="m6odAQxKb8NNMJy8UJ10-4" value="" style="edgeStyle=orthogonalEdgeStyle;rounded=0;orthogonalLoop=1;jettySize=auto;html=1;" parent="WIyWlLk6GJQsqaUBKTNV-1" edge="1">
          <mxGeometry relative="1" as="geometry">
            <mxPoint x="220" y="370" as="sourcePoint" />
            <mxPoint x="220" y="420" as="targetPoint" />
          </mxGeometry>
        </mxCell>
        <mxCell id="m6odAQxKb8NNMJy8UJ10-12" value="" style="edgeStyle=orthogonalEdgeStyle;rounded=0;orthogonalLoop=1;jettySize=auto;html=1;" parent="WIyWlLk6GJQsqaUBKTNV-1" source="m6odAQxKb8NNMJy8UJ10-0" target="m6odAQxKb8NNMJy8UJ10-10" edge="1">
          <mxGeometry relative="1" as="geometry" />
        </mxCell>
        <mxCell id="m6odAQxKb8NNMJy8UJ10-13" value="" style="edgeStyle=orthogonalEdgeStyle;rounded=0;orthogonalLoop=1;jettySize=auto;html=1;" parent="WIyWlLk6GJQsqaUBKTNV-1" source="m6odAQxKb8NNMJy8UJ10-0" target="m6odAQxKb8NNMJy8UJ10-10" edge="1">
          <mxGeometry relative="1" as="geometry" />
        </mxCell>
        <mxCell id="m6odAQxKb8NNMJy8UJ10-0" value="Subtract Bin Trays Needed to be&lt;br&gt;&amp;nbsp;Moved&amp;nbsp;from Total amount of Trays &lt;br&gt;(e.g. 1,000 total limit of trays)&lt;br&gt;to Equal how much Space is Left&lt;br&gt;within the Current BIN" style="shape=parallelogram;perimeter=parallelogramPerimeter;whiteSpace=wrap;html=1;fixedSize=1;" parent="WIyWlLk6GJQsqaUBKTNV-1" vertex="1">
          <mxGeometry x="100" y="280" width="240" height="90" as="geometry" />
        </mxCell>
        <mxCell id="m6odAQxKb8NNMJy8UJ10-3" value="Yes" style="text;html=1;align=center;verticalAlign=middle;resizable=0;points=[];autosize=1;strokeColor=none;fillColor=none;" parent="WIyWlLk6GJQsqaUBKTNV-1" vertex="1">
          <mxGeometry x="230" y="240" width="40" height="30" as="geometry" />
        </mxCell>
        <mxCell id="m6odAQxKb8NNMJy8UJ10-5" value="Yes" style="text;html=1;align=center;verticalAlign=middle;resizable=0;points=[];autosize=1;strokeColor=none;fillColor=none;" parent="WIyWlLk6GJQsqaUBKTNV-1" vertex="1">
          <mxGeometry x="280" y="580" width="40" height="30" as="geometry" />
        </mxCell>
        <mxCell id="m6odAQxKb8NNMJy8UJ10-8" value="Returns to Button&lt;br&gt;(Back to Start)" style="text;html=1;align=center;verticalAlign=middle;resizable=0;points=[];autosize=1;strokeColor=none;fillColor=none;" parent="WIyWlLk6GJQsqaUBKTNV-1" vertex="1">
          <mxGeometry x="424" y="135" width="120" height="40" as="geometry" />
        </mxCell>
        <mxCell id="m6odAQxKb8NNMJy8UJ10-9" value="Start" style="text;html=1;align=center;verticalAlign=middle;resizable=0;points=[];autosize=1;strokeColor=none;fillColor=none;" parent="WIyWlLk6GJQsqaUBKTNV-1" vertex="1">
          <mxGeometry x="100" y="50" width="50" height="30" as="geometry" />
        </mxCell>
        <mxCell id="qh8T2FMrqrmgHG5f_CXa-0" value="" style="edgeStyle=orthogonalEdgeStyle;rounded=0;orthogonalLoop=1;jettySize=auto;html=1;" edge="1" parent="WIyWlLk6GJQsqaUBKTNV-1" source="m6odAQxKb8NNMJy8UJ10-10" target="m6odAQxKb8NNMJy8UJ10-0">
          <mxGeometry relative="1" as="geometry" />
        </mxCell>
        <mxCell id="m6odAQxKb8NNMJy8UJ10-10" value="History Log" style="shape=cylinder3;whiteSpace=wrap;html=1;boundedLbl=1;backgroundOutline=1;size=15;" parent="WIyWlLk6GJQsqaUBKTNV-1" vertex="1">
          <mxGeometry x="384" y="285" width="60" height="80" as="geometry" />
        </mxCell>
        <mxCell id="m6odAQxKb8NNMJy8UJ10-11" value="Query&amp;nbsp;&lt;br&gt;Unique ID&lt;br&gt;and Cols." style="shape=cylinder3;whiteSpace=wrap;html=1;boundedLbl=1;backgroundOutline=1;size=15;" parent="WIyWlLk6GJQsqaUBKTNV-1" vertex="1">
          <mxGeometry x="80" y="160" width="60" height="80" as="geometry" />
        </mxCell>
        <mxCell id="m6odAQxKb8NNMJy8UJ10-15" value="&lt;br&gt;Temp DataSouce Table - Sourcing with Register IDs between the View_DB Register ID and the new generated Temp_DB Register ID." style="text;whiteSpace=wrap;html=1;" parent="WIyWlLk6GJQsqaUBKTNV-1" vertex="1">
          <mxGeometry x="500" y="285" width="260" height="70" as="geometry" />
        </mxCell>
        <mxCell id="m6odAQxKb8NNMJy8UJ10-16" value="" style="edgeStyle=orthogonalEdgeStyle;rounded=0;orthogonalLoop=1;jettySize=auto;html=1;exitX=1;exitY=0;exitDx=0;exitDy=15;exitPerimeter=0;entryX=0;entryY=0;entryDx=0;entryDy=0;" parent="WIyWlLk6GJQsqaUBKTNV-1" source="m6odAQxKb8NNMJy8UJ10-11" target="WIyWlLk6GJQsqaUBKTNV-6" edge="1">
          <mxGeometry relative="1" as="geometry">
            <mxPoint x="160" y="180" as="sourcePoint" />
            <mxPoint x="230" y="180" as="targetPoint" />
            <Array as="points">
              <mxPoint x="170" y="175" />
              <mxPoint x="170" y="190" />
            </Array>
          </mxGeometry>
        </mxCell>
        <mxCell id="m6odAQxKb8NNMJy8UJ10-17" value="" style="edgeStyle=orthogonalEdgeStyle;rounded=0;orthogonalLoop=1;jettySize=auto;html=1;exitX=0;exitY=1;exitDx=0;exitDy=0;entryX=1;entryY=0;entryDx=0;entryDy=52.5;entryPerimeter=0;" parent="WIyWlLk6GJQsqaUBKTNV-1" source="WIyWlLk6GJQsqaUBKTNV-6" target="m6odAQxKb8NNMJy8UJ10-11" edge="1">
          <mxGeometry relative="1" as="geometry">
            <mxPoint x="170" y="230" as="sourcePoint" />
            <mxPoint x="100" y="230" as="targetPoint" />
            <Array as="points" />
          </mxGeometry>
        </mxCell>
        <mxCell id="m6odAQxKb8NNMJy8UJ10-18" value="Calculation Formula&#xa; (Math)&#xa; e.g. 10,000 Limit Plants &#xa;divided by &#xa;10 plants per tray &#xa;equals to&#xa;1,000 trays" style="text;whiteSpace=wrap;html=1;" parent="WIyWlLk6GJQsqaUBKTNV-1" vertex="1">
          <mxGeometry x="-60" y="270" width="160" height="120" as="geometry" />
        </mxCell>
        <mxCell id="m6odAQxKb8NNMJy8UJ10-21" value="" style="edgeStyle=orthogonalEdgeStyle;rounded=0;orthogonalLoop=1;jettySize=auto;html=1;entryX=0.5;entryY=0;entryDx=0;entryDy=0;" parent="WIyWlLk6GJQsqaUBKTNV-1" source="m6odAQxKb8NNMJy8UJ10-19" target="WIyWlLk6GJQsqaUBKTNV-6" edge="1">
          <mxGeometry relative="1" as="geometry" />
        </mxCell>
        <mxCell id="m6odAQxKb8NNMJy8UJ10-19" value="Input Bin (e.g. Bin_001)" style="rounded=1;whiteSpace=wrap;html=1;" parent="WIyWlLk6GJQsqaUBKTNV-1" vertex="1">
          <mxGeometry x="160" y="108" width="120" height="32" as="geometry" />
        </mxCell>
        <mxCell id="m6odAQxKb8NNMJy8UJ10-24" value="Click Menu Button&lt;br&gt;(To Return to Menu)" style="text;html=1;align=center;verticalAlign=middle;resizable=0;points=[];autosize=1;strokeColor=none;fillColor=none;" parent="WIyWlLk6GJQsqaUBKTNV-1" vertex="1">
          <mxGeometry x="310" y="545" width="130" height="40" as="geometry" />
        </mxCell>
        <mxCell id="pQBZNguw_GrPjB0Wjp2l-1" value="No" style="text;html=1;align=center;verticalAlign=middle;resizable=0;points=[];autosize=1;strokeColor=none;fillColor=none;" parent="WIyWlLk6GJQsqaUBKTNV-1" vertex="1">
          <mxGeometry x="290" y="668" width="40" height="30" as="geometry" />
        </mxCell>
        <mxCell id="pQBZNguw_GrPjB0Wjp2l-3" value="Verify Space?" style="text;html=1;align=center;verticalAlign=middle;resizable=0;points=[];autosize=1;strokeColor=none;fillColor=none;" parent="WIyWlLk6GJQsqaUBKTNV-1" vertex="1">
          <mxGeometry x="220" y="160" width="100" height="30" as="geometry" />
        </mxCell>
        <mxCell id="pQBZNguw_GrPjB0Wjp2l-4" value="Partials Amount of Seeds" style="text;html=1;align=center;verticalAlign=middle;resizable=0;points=[];autosize=1;strokeColor=none;fillColor=none;" parent="WIyWlLk6GJQsqaUBKTNV-1" vertex="1">
          <mxGeometry x="570" y="200" width="160" height="30" as="geometry" />
        </mxCell>
        <mxCell id="qh8T2FMrqrmgHG5f_CXa-3" value="" style="edgeStyle=orthogonalEdgeStyle;rounded=0;orthogonalLoop=1;jettySize=auto;html=1;" edge="1" parent="WIyWlLk6GJQsqaUBKTNV-1" source="qh8T2FMrqrmgHG5f_CXa-2" target="m6odAQxKb8NNMJy8UJ10-11">
          <mxGeometry relative="1" as="geometry" />
        </mxCell>
        <mxCell id="qh8T2FMrqrmgHG5f_CXa-2" value="View_PPR Table&lt;br&gt;DB" style="shape=cylinder3;whiteSpace=wrap;html=1;boundedLbl=1;backgroundOutline=1;size=15;" vertex="1" parent="WIyWlLk6GJQsqaUBKTNV-1">
          <mxGeometry x="-30" y="160" width="60" height="80" as="geometry" />
        </mxCell>
        <mxCell id="qh8T2FMrqrmgHG5f_CXa-4" value="Maybe...&lt;br&gt;I can just use it&amp;nbsp;&lt;br&gt;Directly from&amp;nbsp;&lt;br&gt;View_PPR Header Table" style="text;html=1;align=center;verticalAlign=middle;resizable=0;points=[];autosize=1;strokeColor=none;fillColor=none;" vertex="1" parent="WIyWlLk6GJQsqaUBKTNV-1">
          <mxGeometry x="-10" y="89" width="160" height="70" as="geometry" />
        </mxCell>
        <mxCell id="qh8T2FMrqrmgHG5f_CXa-5" value="Extract Table&lt;br&gt;To&lt;br&gt;Query New Table" style="whiteSpace=wrap;html=1;" vertex="1" parent="WIyWlLk6GJQsqaUBKTNV-1">
          <mxGeometry x="-100" y="50" width="120" height="60" as="geometry" />
        </mxCell>
      </root>
    </mxGraphModel>
  </diagram>
</mxfile>
